# Blender v2.79 (sub 0) OBJ File: ''
# www.blender.org
mtllib untitled.mtl
o Cube
v -2.788769 -0.855261 -1.000000
v -2.788769 -0.855261 1.000000
v -4.788769 -0.855261 1.000000
v -4.788768 -0.855261 -1.000000
v -2.788768 1.144739 -0.999999
v -2.788769 1.144739 1.000001
v -4.788769 1.144739 1.000000
v -4.788768 1.144739 -1.000000
vn 0.0000 -1.0000 -0.0000
vn 0.0000 1.0000 -0.0000
vn 1.0000 0.0000 0.0000
vn -0.0000 -0.0000 1.0000
vn -1.0000 0.0000 -0.0000
vn 0.0000 0.0000 -1.0000
usemtl Material
s off
f 1//1 2//1 3//1 4//1
f 5//2 8//2 7//2 6//2
f 1//3 5//3 6//3 2//3
f 2//4 6//4 7//4 3//4
f 3//5 7//5 8//5 4//5
f 5//6 1//6 4//6 8//6
o math
v 3.940098 1.248132 3.744980
v 5.379707 1.248132 2.217734
v 3.616084 2.143528 3.439559
v 5.055694 2.143528 1.912313
vt 0.000000 0.000000
vt 1.000000 0.000000
vt 1.000000 1.000000
vt 0.000000 1.000000
vn 0.6516 0.4453 0.6142
usemtl math
s off
f 9/1/7 10/2/7 12/3/7 11/4/7
